<svg width="320" height="380" viewBox="0 0 320 380" fill="none" xmlns="http://www.w3.org/2000/svg">
<path d="M301 111C301 49.794 251.206 0 190 0H132C70.794 0 21 49.794 21 111V130H301V111ZM66 84.5C60.477 84.5 56 80.023 56 74.5C56 68.978 60.477 64.5 66 64.5C71.523 64.5 76 68.978 76 74.5C76 80.023 71.523 84.5 66 84.5ZM116 104.5C110.477 104.5 106 100.023 106 94.5C106 88.978 110.477 84.5 116 84.5C121.523 84.5 126 88.978 126 94.5C126 100.023 121.523 104.5 116 104.5ZM126 44.5C120.477 44.5 116 40.023 116 34.5C116 28.978 120.477 24.5 126 24.5C131.523 24.5 136 28.978 136 34.5C136 40.023 131.523 44.5 126 44.5ZM166 114.5C160.477 114.5 156 110.023 156 104.5C156 98.978 160.477 94.5 166 94.5C171.522 94.5 176 98.978 176 104.5C176 110.023 171.522 114.5 166 114.5ZM196 54.5C190.478 54.5 186 50.023 186 44.5C186 38.978 190.478 34.5 196 34.5C201.522 34.5 206 38.978 206 44.5C206 50.023 201.522 54.5 196 54.5ZM216 104.5C210.478 104.5 206 100.023 206 94.5C206 88.978 210.478 84.5 216 84.5C221.522 84.5 226 88.978 226 94.5C226 100.023 221.522 104.5 216 104.5ZM266 94.5C260.478 94.5 256 90.023 256 84.5C256 78.978 260.478 74.5 266 74.5C271.522 74.5 276 78.978 276 84.5C276 90.023 271.522 94.5 266 94.5Z" fill="#462B12"/>
<path d="M115.5 380H206.5C256.932 380 298.263 340 300.869 291H21.131C23.737 340 65.068 380 115.5 380Z" fill="#462B12"/>
<path d="M315 211H5C2.239 211 0 213.238 0 216C0 218.762 2.239 221 5 221H44.218L73.574 250.355L102.929 221H129.071L158.426 250.355L187.781 221H214.219L243.573 250.355L272.929 221H315C317.762 221 320 218.762 320 216C320 213.238 317.762 211 315 211Z" fill="#462B12"/>
<path d="M13.84 177.763C15.979 179.509 19.129 179.189 20.875 177.049C20.929 176.983 26.502 170.405 34.269 170.018C39.369 169.773 44.561 172.254 49.709 177.419C56.566 184.298 63.885 187.778 71.483 187.778C71.898 187.778 72.313 187.768 72.73 187.747C85.013 187.135 93.04 177.46 93.375 177.049C93.429 176.983 99.002 170.405 106.769 170.018C111.866 169.773 117.061 172.254 122.209 177.419C129.066 184.298 136.385 187.778 143.983 187.778C144.398 187.778 144.813 187.768 145.23 187.747C157.513 187.135 165.54 177.46 165.876 177.049C165.93 176.983 171.503 170.405 179.27 170.018C184.358 169.771 189.561 172.253 194.71 177.419C201.567 184.298 208.887 187.778 216.483 187.778C216.898 187.778 217.314 187.768 217.73 187.747C230.013 187.135 238.04 177.46 238.376 177.049C238.43 176.983 244.003 170.405 251.77 170.018C256.857 169.771 262.061 172.253 267.21 177.419C274.067 184.298 281.387 187.778 288.983 187.778C289.398 187.778 289.814 187.768 290.23 187.747C302.513 187.135 310.54 177.46 310.876 177.049C312.621 174.909 312.301 171.759 310.161 170.015C308.021 168.269 304.871 168.587 303.126 170.729C303.072 170.795 297.499 177.373 289.732 177.76C284.647 178.019 279.441 175.525 274.292 170.359C267.061 163.104 259.304 159.625 251.271 160.031C238.988 160.643 230.961 170.318 230.625 170.729C230.571 170.795 224.998 177.373 217.231 177.76C212.147 178.019 206.94 175.525 201.791 170.359C194.56 163.104 186.802 159.625 178.77 160.031C166.487 160.643 158.46 170.318 158.125 170.729C158.071 170.795 152.498 177.373 144.731 177.76C139.645 178.015 134.44 175.525 129.291 170.359C122.059 163.105 114.318 159.617 106.27 160.031C93.987 160.643 85.96 170.318 85.625 170.729C85.571 170.795 79.998 177.373 72.231 177.76C67.137 178.015 61.94 175.525 56.791 170.359C49.559 163.105 41.812 159.617 33.77 160.031C21.487 160.643 13.46 170.318 13.125 170.729C11.38 172.868 11.7 176.019 13.84 177.763Z" fill="#462B12"/>
</svg>
