<svg width="1000" height="1000" viewBox="0 0 1000 1000" fill="none" xmlns="http://www.w3.org/2000/svg">
<path d="M162.035 648.914C160.544 655.244 159.753 661.84 159.753 668.621C159.753 715.954 198.116 754.327 245.45 754.327C290.961 754.327 328.193 718.843 330.981 674.031L302.047 669.744C301.458 700.453 276.288 725.247 245.45 725.247C214.235 725.247 188.834 699.846 188.834 668.622C188.834 663.277 189.579 658.115 190.959 653.212L162.035 648.914Z" fill="#462B12"/>
<path d="M754.298 646.528C750.057 643.799 745.009 642.216 739.59 642.216C731.875 642.216 724.907 645.424 719.948 650.577C716.879 653.77 714.578 657.71 713.35 662.097C712.694 664.438 712.343 666.908 712.343 669.46C712.343 684.509 724.541 696.707 739.59 696.707C754.636 696.707 766.834 684.509 766.834 669.46C766.834 666.908 766.483 664.438 765.827 662.097C764.007 655.602 759.839 650.087 754.298 646.528Z" fill="#462B12"/>
<path d="M272.608 669.457C272.608 668.049 272.498 666.66 272.295 665.308L220.813 657.653C220.123 659.07 219.562 660.551 219.129 662.097C218.476 664.443 218.126 666.908 218.126 669.457C218.126 684.508 230.316 696.707 245.367 696.707C260.418 696.707 272.608 684.508 272.608 669.457Z" fill="#462B12"/>
<path d="M793.547 525.344L793.543 525.689L793.864 525.815C825.215 538.126 847.412 568.664 847.411 604.375C847.411 613.786 845.874 622.831 843.03 631.281C840.063 640.11 831.737 646.02 822.428 646.02H821.315H820.656L820.833 646.655C822.863 653.906 823.952 661.552 823.952 669.455C823.952 716.052 786.181 753.824 739.593 753.824C692.995 753.824 655.224 716.052 655.224 669.455C655.224 661.552 656.313 653.906 658.343 646.655L658.52 646.02H657.861H349.188H348.688V646.52V646.52V646.521V646.521V646.521V646.521V646.522V646.522V646.522V646.522V646.523V646.523V646.523V646.524V646.524V646.524V646.524V646.525V646.525V646.525V646.526V646.526V646.526V646.526V646.527V646.527V646.527V646.527V646.528V646.528V646.528V646.529V646.529V646.529V646.529V646.53V646.53V646.53V646.53V646.531V646.531V646.531V646.532V646.532V646.532V646.532V646.533V646.533V646.533V646.534V646.534V646.534V646.534V646.535V646.535V646.535V646.535V646.536V646.536V646.536V646.537V646.537V646.537V646.537V646.538V646.538V646.538V646.538V646.539V646.539V646.539V646.54V646.54V646.54V646.54V646.541V646.541V646.541V646.542V646.542V646.542V646.542V646.543V646.543V646.543V646.543V646.544V646.544V646.544V646.545V646.545V646.545V646.545V646.546V646.546V646.546V646.546V646.547V646.547V646.547V646.548V646.548V646.548V646.548V646.549V646.549V646.549V646.549V646.55V646.55V646.55V646.551V646.551V646.551V646.551V646.552V646.552V646.552V646.553V646.553V646.553V646.553V646.554V646.554V646.554V646.554V646.555V646.555V646.555V646.556V646.556V646.556V646.556V646.557V646.557V646.557V646.557V646.558V646.558V646.558V646.559V646.559V646.559V646.559V646.56V646.56V646.56V646.56V646.561V646.561V646.561V646.562V646.562V646.562V646.562V646.563V646.563V646.563V646.564V646.564V646.564V646.564V646.565V646.565V646.565V646.565V646.566V646.566V646.566V646.567V646.567V646.567V646.567V646.568V646.568V646.568V646.568V646.569V646.569V646.569V646.57V646.57V646.57V646.57V646.571V646.571V646.571V646.572V646.572V646.572V646.572V646.573V646.573V646.573V646.573V646.574V646.574V646.574V646.575V646.575V646.575V646.575V646.576V646.576V646.576V646.576V646.577V646.577V646.577V646.578V646.578V646.578V646.578V646.579V646.579V646.579V646.579V646.58V646.58V646.58V646.581V646.581V646.581V646.581V646.582V646.582V646.582V646.583V646.583V646.583V646.583V646.584V646.584V646.584V646.584V646.585V646.585V646.585V646.586V646.586V646.586V646.586V646.587V646.587V646.587V646.587V646.588V646.588V646.588V646.589V646.589V646.589V646.589V646.59V646.59V646.59V646.591V646.591V646.591V646.591V646.592V646.592V646.592V646.592V646.593V646.593V646.593V646.594V646.594V646.594V646.594V646.595V646.595V646.595V646.595V646.596V646.596V646.596V646.597V646.597V646.597V646.597V646.598V646.598V646.598V646.599V646.599V646.599V646.599V646.6V646.6V646.6V646.6V646.601V646.601V646.601V646.602V646.602V646.602V646.602V646.603V646.603V646.603V646.603V646.604V646.604V646.604V646.605V646.605V646.605V646.605V646.606V646.606V646.606V646.606V646.607V646.607V646.607V646.608V646.608V646.608V646.608V646.609V646.609V646.609V646.61V646.61V646.61V646.61V646.611V646.611V646.611V646.611V646.612V646.612V646.612V646.613V646.613V646.613V646.613V646.614V646.614V646.614V646.614V646.615V646.615V646.615V646.616V646.616V646.616V646.616V646.617V646.617V646.617V646.617V646.618V646.618V646.618V646.619V646.619V646.619V646.619V646.62V646.62V646.62V646.621V646.621V646.621V646.621V646.622V646.622V646.622V646.622V646.623V646.623V646.623V646.624V646.624V646.624V646.624V646.625V646.625V646.625V646.625V646.626V646.626V646.626V646.627V646.627V646.627V646.627V646.628V646.628V646.628V646.629V646.629V646.629V646.629V646.63V646.63V646.63V646.63V646.631V646.631V646.631V646.632V646.632V646.632V646.632V646.633V646.633V646.633V646.633V646.634V646.634V646.634V646.635V646.635V646.635V646.635V646.636V646.636V646.636V646.637V646.637V646.637V646.637V646.638V646.638V646.638V646.638V646.639V646.639V646.639V646.64V646.64V646.64V646.64V646.641V646.641V646.641V646.641V646.642V646.642V646.642V646.643V646.643V646.643V646.643V646.644V646.644V646.644V646.645V646.645V646.645V646.645V646.646V646.646V646.646V646.646V646.647V646.647V646.647V646.648V646.648V646.648V646.648V646.649V646.649V646.649V646.649V646.65V646.65V646.65V646.651V646.651V646.651V646.651V646.652V646.652V646.652V646.652V646.653V646.653V646.653V646.654V646.654V646.654V646.654V646.655V646.655V646.655V646.656V646.656V646.656V646.656V646.657V646.657V646.657V646.657V646.658V646.658V646.658V646.659V646.659V646.659V646.659V646.66V646.66V646.66V646.66V646.661V646.661C348.692 653.878 342.173 659.377 335.02 658.312L330.596 657.654L300.117 653.128L252.388 646.026L214.024 640.322L197.686 637.893L167.179 633.358L162.765 632.701C155.571 631.63 150.989 624.413 153.11 617.46C161.536 589.832 181.933 568.186 207.546 557.543L207.859 557.413L207.854 557.074C207.284 517.666 216.393 452.296 272.832 399.107L272.489 398.743L272.832 399.107C288.93 383.929 301.156 370.321 310.394 358.216L310.822 357.657L310.152 357.438C292.583 351.691 279.715 329.73 279.715 302.549C279.715 286.693 284.105 272.579 291.268 262.443C298.43 252.308 308.339 246.175 319.408 246.175C337.981 246.175 353.344 263.494 357.804 287.909L357.843 288.124L358.028 288.241C360.367 289.725 362.552 291.409 364.582 293.275C370.681 298.889 375.279 306.117 377.688 314.325L377.794 314.684H378.168H408.034H408.262L408.412 314.511C411.095 311.415 415.044 309.449 419.46 309.449H471.423C479.5 309.449 486.047 315.996 486.047 324.073C486.047 332.149 479.5 338.696 471.423 338.696H419.46C415.044 338.696 411.095 336.73 408.412 333.634L408.262 333.461H408.034H380.392H379.885L379.892 333.968C380.147 351.93 377.463 373.86 368.58 398.924C355.739 435.121 357.792 482.348 366.526 522.531C370.895 542.629 376.94 560.989 383.648 575.354C387.002 582.536 390.525 588.727 394.094 593.641C397.658 598.549 401.287 602.209 404.862 604.294C408.429 606.374 414.406 608.19 422.104 609.746C429.818 611.305 439.311 612.612 449.946 613.649C471.216 615.724 497.082 616.723 522.472 616.499C547.86 616.275 572.787 614.828 592.176 612.006C601.869 610.595 610.196 608.837 616.51 606.71C619.667 605.646 622.336 604.485 624.425 603.22C626.51 601.958 628.054 600.57 628.913 599.036C632.224 593.124 631.358 585.675 628.255 577.299C625.147 568.91 619.742 559.459 613.783 549.455C612.837 547.867 611.876 546.264 610.908 544.649C605.772 536.078 600.427 527.158 595.878 518.157C590.471 507.458 586.21 496.682 584.767 486.292C584.057 481.186 585.259 476.829 588.025 473.102C590.801 469.361 595.172 466.229 600.836 463.641C612.168 458.462 628.528 455.522 647.125 454.142C684.305 451.382 730.22 454.867 762.198 458.936C774.428 460.494 782.353 468.428 787.189 480.333C792.033 492.259 793.749 508.114 793.547 525.344ZM688.515 646.022H688.192L688.059 646.317C684.875 653.39 683.102 661.225 683.102 669.457C683.102 700.607 708.443 725.947 739.593 725.947C770.734 725.947 796.074 700.607 796.074 669.457C796.074 661.225 794.302 653.39 791.109 646.317C788.138 639.726 783.942 633.805 778.811 628.849C768.646 619.019 754.816 612.976 739.593 612.976C717.018 612.976 697.489 626.288 688.45 645.472L688.339 645.706L688.467 645.932C688.484 645.962 688.501 645.992 688.518 646.022H688.515ZM319.407 336.922C321.731 336.922 324.081 335.816 326.245 333.879C332.192 328.59 337.102 316.848 337.102 302.548V302.544C337.102 302.273 337.102 301.991 337.093 301.718C336.967 292.162 334.652 283.817 331.342 277.845C329.687 274.859 327.775 272.451 325.748 270.784C323.722 269.119 321.556 268.173 319.407 268.173C317.227 268.173 315.028 269.146 312.977 270.856C310.925 272.568 308.992 275.04 307.328 278.103C303.999 284.23 301.713 292.782 301.713 302.548C301.713 312.314 303.999 320.866 307.328 326.993C308.992 330.056 310.925 332.527 312.977 334.239C315.028 335.949 317.227 336.922 319.407 336.922Z" fill="#462B12" stroke="#462B12"/>
<path d="M450.634 597.496C467.479 599.189 489.374 600.394 515.456 600.394C571.253 600.394 605.817 594.644 614.888 590.108C614.842 588.664 614.354 585.573 611.908 579.887C608.706 572.49 603.509 563.714 597.933 554.394C565.237 578.617 514.518 573.162 486.55 575.057C466.063 576.446 455.786 587.165 450.634 597.496Z" fill="#462B12"/>
<path d="M770.154 454.051L758.59 438.301C751.175 428.208 739.731 421.879 727.246 420.959C706.326 419.414 672.847 418.172 646.03 422.836C621.613 427.086 610.058 442.662 604.658 455.082C621.981 449.672 645.707 447.014 676.187 447.014C712.379 447.014 746.888 450.721 764.239 452.929C766.19 453.177 768.167 453.545 770.154 454.051Z" fill="#462B12"/>
</svg>
